<?xml version="1.0" encoding="UTF-8"?>
<svg id="Layer_1" xmlns="http://www.w3.org/2000/svg" version="1.1" xmlns:xlink="http://www.w3.org/1999/xlink" viewBox="0 0 195.6 96.7">
  <!-- Generator: Adobe Illustrator 29.3.1, SVG Export Plug-In . SVG Version: 2.1.0 Build 151)  -->
  <defs>
    <style>
      .st0 {
        fill: #8f57a2;
      }

      .st1 {
        fill: #8bd4e6;
      }

      .st2 {
        fill: #44475a;
      }
    </style>
  </defs>
  <path class="st0" d="M23.7,0C36.8,0,47.4,10.6,47.4,23.7s-10.6,23.7-23.7,23.7S0,36.8,0,23.7,10.6,0,23.7,0Z"/>
  <path class="st2" d="M32.4,38.8l-2.8-7.7h-12.1l-2.6,7.7h-5.5l11.5-30.3h5.6l11.5,30.3h-5.5ZM23.7,13.1h-.1c-.1.8-.2,1.6-.5,2.2l-4.1,11.7h9.3l-4.2-11.7c-.1-.4-.3-1.1-.4-2.2Z"/>
  <path class="st0" d="M73.1,0C86.2,0,96.8,10.6,96.8,23.7s-10.6,23.7-23.7,23.7-23.7-10.6-23.7-23.7S60,0,73.1,0Z"/>
  <path class="st2" d="M83.3,30c0,2.6-1,4.8-2.9,6.4-2,1.6-4.5,2.4-7.6,2.4h-9.9V8.5h9.6c2.9,0,5.2.6,6.9,1.9,1.7,1.3,2.5,3,2.5,5.1s-.5,3.1-1.5,4.3c-1,1.3-2.3,2.1-4,2.7h0c2.2.4,3.8,1.2,5.1,2.5,1.2,1.3,1.8,3,1.8,5ZM76.5,16.5c0-1.2-.5-2.1-1.3-2.8-.9-.6-2.2-1-4-1h-3.3v8.4h3.2c1.7,0,3-.4,4-1.2.9-.8,1.4-1.9,1.4-3.4ZM78,29.9c0-1.4-.5-2.6-1.6-3.4-1.1-.8-2.6-1.2-4.7-1.2h-3.8v9.4h4.2c1.8,0,3.2-.4,4.2-1.3,1-.9,1.5-2,1.5-3.5Z"/>
  <path class="st0" d="M171.9,0C185,0,195.6,10.6,195.6,23.7s-10.6,23.7-23.7,23.7-23.7-10.6-23.7-23.7S158.8,0,171.9,0Z"/>
  <path class="st2" d="M174.3,27.8v11h-5v-10.9l-9.8-19.4h5.7l6.1,12.6c.2.4.3.8.4,1.1,0,.3.2.6.3.8h0c.2-.6.4-1.3.7-1.9l6.3-12.7h5.3l-10,19.3Z"/>
  <path class="st0" d="M122.5,0C135.6,0,146.2,10.6,146.2,23.7s-10.6,23.7-23.7,23.7-23.7-10.6-23.7-23.7S109.4,0,122.5,0Z"/>
  <path class="st2" d="M129.6,38.8l-6.4-11c-.1-.3-.2-.5-.3-.8,0-.3-.1-.5-.2-.8h0c-.1.3-.2.5-.3.8,0,.2-.2.5-.3.8l-6.5,11h-6.1l10.1-15.2-9.3-15.1h6.2l5.4,10c.5.9.9,1.6,1,2.3h0c.3-.8.5-1.3.7-1.6.1-.2,2.2-3.8,6.3-10.7h5.7l-9.5,15,9.6,15.3h-6Z"/>
  <path class="st1" d="M23.7,49.4c13.1,0,23.7,10.6,23.7,23.7s-10.6,23.7-23.7,23.7S0,86.1,0,73.1s10.6-23.7,23.7-23.7Z"/>
  <path class="st2" d="M32.4,88.2l-2.8-7.7h-12.1l-2.6,7.7h-5.5l11.5-30.3h5.6l11.5,30.3h-5.5ZM23.7,62.5h-.1c-.1.8-.2,1.6-.5,2.2l-4.1,11.7h9.3l-4.2-11.7c-.1-.4-.3-1.1-.4-2.2Z"/>
  <path class="st1" d="M73.1,49.4c13.1,0,23.7,10.6,23.7,23.7s-10.6,23.7-23.7,23.7-23.7-10.6-23.7-23.7,10.6-23.7,23.7-23.7Z"/>
  <path class="st2" d="M83.3,79.4c0,2.6-1,4.8-2.9,6.4-2,1.6-4.5,2.4-7.6,2.4h-9.9v-30.3h9.6c2.9,0,5.2.6,6.9,1.9,1.7,1.3,2.5,3,2.5,5.1s-.5,3.1-1.5,4.3c-1,1.3-2.3,2.2-4,2.7h0c2.2.4,3.8,1.2,5.1,2.5,1.2,1.3,1.8,3,1.8,5ZM76.5,65.8c0-1.2-.5-2.1-1.3-2.8-.9-.6-2.2-1-4-1h-3.3v8.4h3.2c1.7,0,3-.4,4-1.2.9-.8,1.4-1.9,1.4-3.4ZM78,79.2c0-1.4-.5-2.6-1.6-3.4-1.1-.8-2.6-1.2-4.7-1.2h-3.8v9.4h4.2c1.8,0,3.2-.4,4.2-1.3,1-.9,1.5-2,1.5-3.5Z"/>
  <path class="st1" d="M171.9,49.4c13.1,0,23.7,10.6,23.7,23.7s-10.6,23.7-23.7,23.7-23.7-10.6-23.7-23.7,10.6-23.7,23.7-23.7Z"/>
  <path class="st2" d="M174.3,77.2v11h-5v-10.9l-9.8-19.4h5.7l6.1,12.6c.2.4.3.8.4,1.1,0,.3.2.6.3.8h0c.2-.6.4-1.3.7-1.9l6.3-12.7h5.3l-10,19.3Z"/>
  <path class="st1" d="M122.5,49.4c13.1,0,23.7,10.6,23.7,23.7s-10.6,23.7-23.7,23.7-23.7-10.6-23.7-23.7,10.6-23.7,23.7-23.7Z"/>
  <path class="st2" d="M129.6,88.2l-6.4-11c-.1-.3-.2-.5-.3-.8,0-.3-.1-.5-.2-.8h0c-.1.3-.2.5-.3.8,0,.2-.2.5-.3.8l-6.5,11h-6.1l10.1-15.2-9.3-15.1h6.2l5.4,10c.5.9.9,1.6,1,2.3h0c.3-.8.5-1.3.7-1.6.1-.2,2.2-3.8,6.3-10.7h5.7l-9.5,15,9.6,15.3h-6Z"/>
</svg>